<svg width="50" height="53" xmlns="http://www.w3.org/2000/svg">

 <g>
  <title>Layer 1</title>
  <g stroke="null" id="Icon">
   <circle stroke="null" id="svg_1" fill="#5bb254" r="22.22042" cy="26.58157" cx="25.55377"/>
   <path stroke="null" id="svg_2" fill="#fff" d="m15.46577,41.18398c-1.39946,0 -2.57144,2.54527 -2.57144,5.67871s1.17199,5.67871 2.57144,5.67871l20.17598,0c1.39947,0 2.57146,-2.54527 2.57146,-5.67871s-1.17199,-5.67871 -2.57146,-5.67871l-20.17598,0zm19.38478,-40.56226l-18.59356,0c-1.83957,0 -3.36266,3.12329 -3.36266,6.89558l0,23.52611c0,3.76215 1.52803,6.8956 3.36266,6.8956l18.59356,0c1.83957,0 3.36267,-3.1233 3.36267,-6.8956l0,-23.52611c0,-3.77229 -1.52309,-6.89558 -3.36267,-6.89558zm0.59342,27.98796c0,2.01797 -0.79616,3.65059 -1.78024,3.65059l-16.21991,0c-0.98407,0 -1.78024,-1.63262 -1.78024,-3.65059l0,-18.65864c0,-2.01798 0.79617,-3.65061 1.78024,-3.65061l16.21991,0c0.98408,0 1.78024,1.63263 1.78024,3.65061l0,18.65864z" class="st1"/>
   <path stroke="null" id="svg_3" fill="#fff" d="m30.10821,13.62192c-1.49342,0 -2.70003,2.48444 -2.70003,5.53675c0,3.06244 1.21154,5.53675 2.70003,5.53675c1.49341,0 2.70001,-2.48443 2.70001,-5.53675s-1.2066,-5.53675 -2.70001,-5.53675m-8.97041,0c-1.49342,0 -2.70003,2.48444 -2.70003,5.53675c0,3.06244 1.21155,5.53675 2.70003,5.53675c1.49342,0 2.70002,-2.48443 2.70002,-5.53675s-1.2066,-5.53675 -2.70002,-5.53675" class="st1"/>
  </g>
 </g>
</svg>